<svg viewBox="0 0 320 200" fill="none" xmlns="http://www.w3.org/2000/svg">
<g clip-path="url(#alert-dialog-1)">
<rect width="320" height="200" style="fill:var(--scrim)"/>
<path d="M91.2002 28.5H228.8C234.709 28.5 239.5 33.2907 239.5 39.2002V160.8C239.5 166.709 234.709 171.5 228.8 171.5H91.2002C85.2907 171.5 80.5 166.709 80.5 160.8V39.2002C80.5 33.2907 85.2907 28.5 91.2002 28.5Z" style="fill:var(--background);stroke:var(--border)"/>
<circle opacity="0.16" cx="160" cy="58" r="16" style="fill:var(--destructive)"/>
<path d="M160.006 60.6665C160.374 60.6665 160.673 60.9651 160.673 61.3332C160.673 61.7014 160.374 61.9999 160.006 61.9999H160C159.632 61.9997 159.333 61.7013 159.333 61.3332C159.333 60.9652 159.632 60.6667 160 60.6665H160.006Z" style="fill:var(--destructive)"/>
<path d="M160 55.3332C160.368 55.3332 160.666 55.6318 160.666 55.9999V58.6665C160.666 59.0347 160.368 59.3332 160 59.3332C159.632 59.3331 159.333 59.0346 159.333 58.6665V55.9999C159.333 55.6319 159.632 55.3334 160 55.3332Z" style="fill:var(--destructive)"/>
<path fill-rule="evenodd" clip-rule="evenodd" d="M159.993 51.3241C160.347 51.3241 160.695 51.4181 161 51.5962C161.305 51.7739 161.558 52.029 161.732 52.3358L167.064 61.6665L167.126 61.7824C167.261 62.0567 167.332 62.359 167.332 62.6659C167.332 63.0168 167.24 63.3619 167.065 63.6659C166.89 63.9699 166.637 64.222 166.333 64.3977C166.029 64.5733 165.685 64.6662 165.334 64.6665H154.666C154.316 64.6686 153.971 64.5787 153.666 64.4055C153.36 64.2312 153.104 63.9789 152.927 63.6744C152.749 63.3698 152.655 63.0236 152.655 62.6711C152.654 62.3194 152.746 61.9739 152.922 61.6691L158.254 52.3358C158.429 52.0289 158.682 51.774 158.987 51.5962C159.292 51.4182 159.64 51.3241 159.993 51.3241ZM159.993 52.6574C159.875 52.6575 159.76 52.6887 159.658 52.7479C159.556 52.8073 159.471 52.8927 159.413 52.9953L159.412 52.9973L154.079 62.3306L154.077 62.3332C154.018 62.435 153.988 62.551 153.988 62.6685C153.988 62.7858 154.019 62.9011 154.078 63.0025C154.138 63.104 154.223 63.1885 154.325 63.2466C154.427 63.3046 154.543 63.3342 154.661 63.3332H165.332C165.449 63.3331 165.565 63.3025 165.666 63.244C165.767 63.1855 165.851 63.1011 165.909 62.9999C165.968 62.8986 165.998 62.7835 165.998 62.6665C165.998 62.5496 165.968 62.4345 165.909 62.3332L165.908 62.3306L160.575 52.9973L160.573 52.9953C160.515 52.8928 160.431 52.8073 160.329 52.7479C160.227 52.6886 160.111 52.6574 159.993 52.6574Z" style="fill:var(--destructive)"/>
<rect opacity="0.8" x="112" y="86" width="96" height="6" rx="3" style="fill:var(--foreground)"/>
<rect opacity="0.45" x="100" y="102" width="120" height="6" rx="3" style="fill:var(--muted-foreground)"/>
<path d="M100 128.5H148C152.142 128.5 155.5 131.858 155.5 136V148C155.5 152.142 152.142 155.5 148 155.5H100C95.8579 155.5 92.5 152.142 92.5 148V136L92.5098 135.614C92.7105 131.651 95.9872 128.5 100 128.5Z" style="fill:var(--background);stroke:var(--border)"/>
<rect opacity="0.8" x="108" y="139" width="32" height="6" rx="3" style="fill:var(--foreground)"/>
<path d="M164 136C164 131.582 167.582 128 172 128H220C224.418 128 228 131.582 228 136V148C228 152.418 224.418 156 220 156H172C167.582 156 164 152.418 164 148V136Z" style="fill:var(--destructive)"/>
<rect opacity="0.9" x="180" y="139" width="32" height="6" rx="3" style="fill:var(--destructive-foreground)"/>
</g>
<defs>
<clipPath id="alert-dialog-1">
<rect width="320" height="200"/>
</clipPath>
</defs>
</svg>
