<svg viewBox="0 0 320 200" fill="none" xmlns="http://www.w3.org/2000/svg">
<path d="M83.2002 28.5H236.8C242.709 28.5 247.5 33.2907 247.5 39.2002V160.8C247.5 166.709 242.709 171.5 236.8 171.5H83.2002C77.2907 171.5 72.5 166.709 72.5 160.8V39.2002C72.5 33.2907 77.2907 28.5 83.2002 28.5Z" style="fill:var(--background);stroke:var(--border)"/>
<rect opacity="0.8" x="88" y="48" width="88" height="6" rx="3" style="fill:var(--foreground)"/>
<path d="M232.254 47.0875C232.482 46.8597 232.851 46.8597 233.079 47.0875C233.307 47.3154 233.307 47.6846 233.079 47.9124L226.662 54.3291C226.435 54.5569 226.065 54.5568 225.838 54.3291L222.921 51.4124C222.693 51.1846 222.693 50.8153 222.921 50.5875C223.149 50.3597 223.518 50.3597 223.746 50.5875L226.25 53.0918L232.254 47.0875Z" style="fill:var(--primary)"/>
<path d="M76 75.4C76 71.8654 78.8654 69 82.4 69H237.6C241.135 69 244 71.8654 244 75.4V92.6C244 96.1346 241.135 99 237.6 99H82.4C78.8654 99 76 96.1346 76 92.6V75.4Z" style="fill:var(--muted)"/>
<rect opacity="0.8" x="88" y="81" width="72" height="6" rx="3" style="fill:var(--foreground)"/>
<rect opacity="0.8" x="88" y="114" width="96" height="6" rx="3" style="fill:var(--foreground)"/>
<path d="M232.254 113.088C232.482 112.86 232.851 112.86 233.079 113.088C233.307 113.315 233.307 113.685 233.079 113.912L226.662 120.329C226.435 120.557 226.065 120.557 225.838 120.329L222.921 117.412C222.693 117.185 222.693 116.815 222.921 116.588C223.149 116.36 223.518 116.36 223.746 116.588L226.25 119.092L232.254 113.088Z" style="fill:var(--primary)"/>
<rect opacity="0.45" x="88" y="147" width="64" height="6" rx="3" style="fill:var(--muted-foreground)"/>
</svg>
